<mxfile host="app.diagrams.net" agent="Mozilla/5.0 (Windows NT 10.0; Win64; x64) AppleWebKit/537.36 (KHTML, like Gecko) Chrome/140.0.0.0 Safari/537.36" version="28.2.5">
  <diagram name="Page-1" id="JIowyf5ZmtaRhC7pZ6tD">
    <mxGraphModel dx="1216" dy="730" grid="1" gridSize="10" guides="1" tooltips="1" connect="1" arrows="1" fold="1" page="1" pageScale="1" pageWidth="827" pageHeight="1169" math="0" shadow="0">
      <root>
        <mxCell id="0" />
        <mxCell id="1" parent="0" />
        <mxCell id="44VzV7iFw_1aFhjBjFrC-1" value="Actor" style="shape=umlActor;verticalLabelPosition=bottom;verticalAlign=top;html=1;" vertex="1" parent="1">
          <mxGeometry x="20" y="290" width="30" height="60" as="geometry" />
        </mxCell>
        <mxCell id="44VzV7iFw_1aFhjBjFrC-9" value="" style="edgeStyle=orthogonalEdgeStyle;rounded=0;orthogonalLoop=1;jettySize=auto;html=1;" edge="1" parent="1" source="44VzV7iFw_1aFhjBjFrC-2" target="44VzV7iFw_1aFhjBjFrC-7">
          <mxGeometry relative="1" as="geometry" />
        </mxCell>
        <mxCell id="44VzV7iFw_1aFhjBjFrC-13" style="edgeStyle=orthogonalEdgeStyle;rounded=0;orthogonalLoop=1;jettySize=auto;html=1;entryX=0;entryY=0.5;entryDx=0;entryDy=0;" edge="1" parent="1" source="44VzV7iFw_1aFhjBjFrC-2" target="44VzV7iFw_1aFhjBjFrC-8">
          <mxGeometry relative="1" as="geometry" />
        </mxCell>
        <mxCell id="44VzV7iFw_1aFhjBjFrC-14" style="edgeStyle=orthogonalEdgeStyle;rounded=0;orthogonalLoop=1;jettySize=auto;html=1;entryX=0;entryY=0.5;entryDx=0;entryDy=0;" edge="1" parent="1" source="44VzV7iFw_1aFhjBjFrC-2" target="44VzV7iFw_1aFhjBjFrC-6">
          <mxGeometry relative="1" as="geometry" />
        </mxCell>
        <mxCell id="44VzV7iFw_1aFhjBjFrC-2" value="Menu de démarrage" style="html=1;whiteSpace=wrap;" vertex="1" parent="1">
          <mxGeometry x="180" y="295" width="110" height="50" as="geometry" />
        </mxCell>
        <mxCell id="44VzV7iFw_1aFhjBjFrC-23" value="" style="edgeStyle=orthogonalEdgeStyle;rounded=0;orthogonalLoop=1;jettySize=auto;html=1;" edge="1" parent="1" source="44VzV7iFw_1aFhjBjFrC-6" target="44VzV7iFw_1aFhjBjFrC-22">
          <mxGeometry relative="1" as="geometry" />
        </mxCell>
        <mxCell id="44VzV7iFw_1aFhjBjFrC-6" value="Start Game" style="html=1;whiteSpace=wrap;" vertex="1" parent="1">
          <mxGeometry x="359" y="190" width="110" height="50" as="geometry" />
        </mxCell>
        <mxCell id="44VzV7iFw_1aFhjBjFrC-21" value="" style="edgeStyle=orthogonalEdgeStyle;rounded=0;orthogonalLoop=1;jettySize=auto;html=1;" edge="1" parent="1" source="44VzV7iFw_1aFhjBjFrC-7" target="44VzV7iFw_1aFhjBjFrC-20">
          <mxGeometry relative="1" as="geometry" />
        </mxCell>
        <mxCell id="44VzV7iFw_1aFhjBjFrC-7" value="Options" style="html=1;whiteSpace=wrap;" vertex="1" parent="1">
          <mxGeometry x="359" y="295" width="110" height="50" as="geometry" />
        </mxCell>
        <mxCell id="44VzV7iFw_1aFhjBjFrC-18" value="" style="edgeStyle=orthogonalEdgeStyle;rounded=0;orthogonalLoop=1;jettySize=auto;html=1;" edge="1" parent="1" source="44VzV7iFw_1aFhjBjFrC-8" target="44VzV7iFw_1aFhjBjFrC-17">
          <mxGeometry relative="1" as="geometry" />
        </mxCell>
        <mxCell id="44VzV7iFw_1aFhjBjFrC-8" value="Quit Game" style="html=1;whiteSpace=wrap;" vertex="1" parent="1">
          <mxGeometry x="359" y="400" width="110" height="50" as="geometry" />
        </mxCell>
        <mxCell id="44VzV7iFw_1aFhjBjFrC-15" value="" style="ellipse;html=1;shape=startState;fillColor=#000000;strokeColor=#ff0000;" vertex="1" parent="1">
          <mxGeometry x="70" y="305" width="30" height="30" as="geometry" />
        </mxCell>
        <mxCell id="44VzV7iFw_1aFhjBjFrC-16" value="" style="edgeStyle=orthogonalEdgeStyle;html=1;verticalAlign=bottom;endArrow=open;endSize=8;strokeColor=#ff0000;rounded=0;" edge="1" source="44VzV7iFw_1aFhjBjFrC-15" parent="1" target="44VzV7iFw_1aFhjBjFrC-2">
          <mxGeometry relative="1" as="geometry">
            <mxPoint x="115" y="500" as="targetPoint" />
          </mxGeometry>
        </mxCell>
        <mxCell id="44VzV7iFw_1aFhjBjFrC-17" value="" style="ellipse;html=1;shape=endState;fillColor=#000000;strokeColor=#ff0000;" vertex="1" parent="1">
          <mxGeometry x="399" y="510" width="30" height="30" as="geometry" />
        </mxCell>
        <mxCell id="44VzV7iFw_1aFhjBjFrC-25" value="" style="edgeStyle=orthogonalEdgeStyle;rounded=0;orthogonalLoop=1;jettySize=auto;html=1;" edge="1" parent="1" source="44VzV7iFw_1aFhjBjFrC-20" target="44VzV7iFw_1aFhjBjFrC-24">
          <mxGeometry relative="1" as="geometry" />
        </mxCell>
        <mxCell id="44VzV7iFw_1aFhjBjFrC-20" value="Menu d&#39;options&lt;div&gt;(possibilité de modifier le volume, les touches, la langue)&lt;/div&gt;" style="html=1;whiteSpace=wrap;" vertex="1" parent="1">
          <mxGeometry x="540" y="280" width="140" height="80" as="geometry" />
        </mxCell>
        <mxCell id="44VzV7iFw_1aFhjBjFrC-22" value="Boucle de jeu" style="html=1;whiteSpace=wrap;" vertex="1" parent="1">
          <mxGeometry x="550" y="190" width="110" height="50" as="geometry" />
        </mxCell>
        <mxCell id="44VzV7iFw_1aFhjBjFrC-27" value="" style="edgeStyle=orthogonalEdgeStyle;rounded=0;orthogonalLoop=1;jettySize=auto;html=1;" edge="1" parent="1" source="44VzV7iFw_1aFhjBjFrC-24" target="44VzV7iFw_1aFhjBjFrC-2">
          <mxGeometry relative="1" as="geometry">
            <mxPoint x="835" y="425" as="targetPoint" />
            <Array as="points">
              <mxPoint x="835" y="570" />
              <mxPoint x="235" y="570" />
            </Array>
          </mxGeometry>
        </mxCell>
        <mxCell id="44VzV7iFw_1aFhjBjFrC-24" value="Quitter les options" style="html=1;whiteSpace=wrap;" vertex="1" parent="1">
          <mxGeometry x="780" y="295" width="110" height="50" as="geometry" />
        </mxCell>
        <mxCell id="44VzV7iFw_1aFhjBjFrC-31" value="" style="swimlane;startSize=0;" vertex="1" parent="1">
          <mxGeometry y="30" width="930" height="570" as="geometry" />
        </mxCell>
      </root>
    </mxGraphModel>
  </diagram>
</mxfile>
